<svg width="93" height="22" viewBox="0 0 93 22" fill="none" xmlns="http://www.w3.org/2000/svg">
<path d="M4.70422 17.4836V4.02751H0V0.954498H12.9131V4.02751H8.20885V17.4836H4.70422Z" fill="#3685FB"/>
<path d="M13.8591 17.4836V5.19154H16.8933L17.0109 7.05397C17.3245 6.40212 17.7479 5.90547 18.281 5.56402C18.8142 5.20706 19.4414 5.02857 20.1627 5.02857C20.3822 5.02857 20.6018 5.05185 20.8213 5.09841C21.0408 5.12945 21.2368 5.17601 21.4093 5.2381L21.0565 8.45079C20.884 8.38871 20.7037 8.34991 20.5155 8.33439C20.343 8.30335 20.1627 8.28783 19.9745 8.28783C19.0651 8.28783 18.3673 8.5672 17.8812 9.12593C17.3951 9.66914 17.152 10.4452 17.152 11.454V17.4836H13.8591Z" fill="#3685FB"/>
<path d="M26.7359 1.86243C26.7359 2.2194 26.6497 2.53757 26.4772 2.81693C26.3204 3.0963 26.093 3.32134 25.7951 3.49206C25.5128 3.64727 25.1992 3.72487 24.8542 3.72487C24.5093 3.72487 24.1878 3.64727 23.8899 3.49206C23.6076 3.32134 23.3803 3.0963 23.2078 2.81693C23.051 2.53757 22.9726 2.2194 22.9726 1.86243C22.9726 1.50547 23.051 1.1873 23.2078 0.907937C23.3803 0.628572 23.6076 0.411288 23.8899 0.256086C24.1878 0.0853618 24.5093 0 24.8542 0C25.1992 0 25.5128 0.0853618 25.7951 0.256086C26.093 0.411288 26.3204 0.628572 26.4772 0.907937C26.6497 1.1873 26.7359 1.50547 26.7359 1.86243ZM23.2078 17.4836V5.19154H26.5007V17.4836H23.2078Z" fill="#3685FB"/>
<path d="M29.134 22V5.19154H32.1682L32.2623 6.98413C32.6857 6.31676 33.2502 5.79683 33.9558 5.42434C34.6614 5.03633 35.4376 4.84233 36.2844 4.84233C37.0998 4.84233 37.8525 5.00529 38.5424 5.33122C39.2324 5.65714 39.8361 6.11499 40.3535 6.70476C40.871 7.27901 41.2708 7.95414 41.5531 8.73016C41.851 9.50617 42 10.352 42 11.2677C42 12.1989 41.851 13.0603 41.5531 13.8519C41.2552 14.6434 40.8396 15.3418 40.3065 15.9471C39.7733 16.5369 39.1461 17.0025 38.4248 17.3439C37.7035 17.6698 36.9273 17.8328 36.0962 17.8328C35.3279 17.8328 34.6301 17.6854 34.0028 17.3905C33.3756 17.0801 32.8503 16.6533 32.4269 16.1101V22H29.134ZM35.5082 14.8995C36.104 14.8995 36.6372 14.7443 37.1076 14.4339C37.578 14.1235 37.9465 13.7044 38.2131 13.1767C38.4954 12.6335 38.6365 12.0205 38.6365 11.3376C38.6365 10.6547 38.4954 10.0494 38.2131 9.52169C37.9465 8.97848 37.578 8.55168 37.1076 8.24127C36.6372 7.93086 36.104 7.77566 35.5082 7.77566C34.9123 7.77566 34.3792 7.93086 33.9088 8.24127C33.4383 8.55168 33.062 8.97848 32.7797 9.52169C32.5132 10.0494 32.3799 10.6547 32.3799 11.3376C32.3799 12.0205 32.5132 12.6335 32.7797 13.1767C33.062 13.7044 33.4383 14.1235 33.9088 14.4339C34.3792 14.7443 34.9123 14.8995 35.5082 14.8995Z" fill="#3685FB"/>
<path d="M51.5618 18C50.5793 18 49.6514 17.859 48.778 17.577C47.9203 17.295 47.1328 16.8956 46.4154 16.3786C45.7136 15.846 45.1054 15.2193 44.5907 14.4987C44.0917 13.7781 43.7018 12.9791 43.4211 12.1018C43.1404 11.2089 43 10.2533 43 9.23499C43 8.21671 43.1404 7.2611 43.4211 6.36815C43.7018 5.4752 44.0995 4.66057 44.6141 3.92428C45.1288 3.18799 45.7448 2.56136 46.4621 2.04439C47.1795 1.51175 47.9671 1.10444 48.8248 0.822455C49.6982 0.524805 50.6261 0.37598 51.6086 0.37598C52.7159 0.37598 53.7452 0.556136 54.6965 0.91645C55.6478 1.27676 56.4821 1.79373 57.1995 2.46736C57.9325 3.14099 58.5017 3.95561 58.9072 4.91123L55.5386 5.94517C55.1175 5.19321 54.5717 4.61358 53.9011 4.20627C53.2461 3.79896 52.4819 3.5953 51.6086 3.5953C50.8912 3.5953 50.2284 3.73629 49.6202 4.01828C49.012 4.2846 48.4817 4.67624 48.0295 5.19321C47.5772 5.69452 47.2263 6.28198 46.9768 6.95561C46.7273 7.62924 46.6025 8.36554 46.6025 9.16449C46.6025 9.97911 46.7273 10.7311 46.9768 11.4204C47.2263 12.1097 47.5772 12.705 48.0295 13.2063C48.4973 13.7076 49.0432 14.0992 49.667 14.3812C50.2908 14.6475 50.977 14.7807 51.7256 14.7807C52.5209 14.7807 53.2305 14.6319 53.8543 14.3342C54.4781 14.0366 54.985 13.6214 55.3749 13.0888C55.7647 12.5561 56.0065 11.9295 56.1 11.2089H51.9595V8.31854H59.6792V10.0809C59.6792 11.2402 59.4764 12.3055 59.0709 13.2768C58.6811 14.248 58.1274 15.0862 57.41 15.7911C56.6927 16.4961 55.8349 17.0444 54.8368 17.436C53.8387 17.812 52.7471 18 51.5618 18Z" fill="#002248"/>
<path d="M67.9791 17.8825C67.059 17.8825 66.209 17.718 65.4292 17.389C64.6495 17.0601 63.9711 16.6057 63.3941 16.0261C62.817 15.4308 62.3648 14.7337 62.0373 13.9347C61.7254 13.1358 61.5694 12.2663 61.5694 11.3264C61.5694 10.3864 61.7332 9.52481 62.0607 8.74152C62.3882 7.94256 62.8404 7.24543 63.4174 6.65013C64.0101 6.05483 64.6963 5.59269 65.476 5.26371C66.2714 4.93473 67.1369 4.77024 68.0726 4.77024C68.9928 4.77024 69.8427 4.93473 70.6225 5.26371C71.4022 5.59269 72.0806 6.05483 72.6577 6.65013C73.2347 7.22977 73.6791 7.91906 73.9911 8.71802C74.3186 9.50131 74.4823 10.3629 74.4823 11.3029C74.4823 12.2428 74.3186 13.1123 73.9911 13.9112C73.6635 14.7102 73.2035 15.4073 72.6109 16.0026C72.0338 16.5979 71.3476 17.0601 70.5523 17.389C69.7725 17.718 68.9148 17.8825 67.9791 17.8825ZM68.0259 14.9217C68.6185 14.9217 69.1487 14.765 69.6166 14.4517C70.0844 14.1384 70.4509 13.7154 70.716 13.1828C70.9968 12.6345 71.1371 12.0157 71.1371 11.3264C71.1371 10.6371 70.9968 10.0261 70.716 9.49347C70.4509 8.94517 70.0844 8.51436 69.6166 8.20105C69.1487 7.88773 68.6185 7.73107 68.0259 7.73107C67.4332 7.73107 66.903 7.88773 66.4351 8.20105C65.9673 8.51436 65.593 8.94517 65.3123 9.49347C65.0472 10.0261 64.9146 10.6371 64.9146 11.3264C64.9146 12.0157 65.0472 12.6345 65.3123 13.1828C65.593 13.7154 65.9673 14.1384 66.4351 14.4517C66.903 14.765 67.4332 14.9217 68.0259 14.9217Z" fill="#002248"/>
<path d="M80.448 17.8825C79.8086 17.8825 79.2238 17.7885 78.6936 17.6005C78.1633 17.4125 77.6955 17.1462 77.29 16.8016C76.9001 16.4413 76.596 16.0261 76.3777 15.5561C76.1593 15.0862 76.0502 14.5692 76.0502 14.0052C76.0502 13.2219 76.2607 12.5326 76.6818 11.9373C77.1029 11.342 77.6955 10.8799 78.4596 10.5509C79.2238 10.2063 80.1127 10.0339 81.1264 10.0339C81.6411 10.0339 82.1245 10.0809 82.5768 10.1749C83.0447 10.2689 83.4969 10.4021 83.9336 10.5744V9.84595C83.9336 9.14099 83.7309 8.56919 83.3254 8.13055C82.9355 7.69191 82.3975 7.47258 81.7113 7.47258C81.1966 7.47258 80.7288 7.60574 80.3077 7.87206C79.8866 8.12272 79.5903 8.48303 79.4188 8.953L76.4946 8.36554C76.6662 7.64491 77.0015 7.01828 77.5005 6.48564C78.0152 5.93734 78.639 5.51436 79.372 5.21671C80.1049 4.91906 80.9003 4.77024 81.758 4.77024C82.5534 4.77024 83.2786 4.89556 83.9336 5.14621C84.5886 5.39687 85.15 5.75718 85.6179 6.22715C86.1013 6.69713 86.4678 7.25326 86.7174 7.89556C86.9825 8.52219 87.115 9.22715 87.115 10.0104V17.53H84.1909L84.0973 16.0731C83.7698 16.6057 83.2942 17.0444 82.6704 17.389C82.0466 17.718 81.3058 17.8825 80.448 17.8825ZM79.2784 13.8407C79.2784 14.2794 79.4577 14.6397 79.8164 14.9217C80.1751 15.2037 80.6508 15.3446 81.2434 15.3446C81.7581 15.3446 82.2181 15.235 82.6236 15.0157C83.0291 14.7963 83.3488 14.4987 83.5827 14.1227C83.8166 13.7311 83.9336 13.3003 83.9336 12.8303V12.7128C83.5905 12.5718 83.224 12.4621 82.8341 12.3838C82.4442 12.2898 82.0544 12.2428 81.6645 12.2428C80.9315 12.2428 80.3467 12.3916 79.91 12.6893C79.4889 12.9713 79.2784 13.3551 79.2784 13.8407Z" fill="#002248"/>
<path d="M89.725 17.53V0H93V17.53H89.725Z" fill="#002248"/>
</svg>
